<?xml version="1.0" encoding="utf-8"?>
<!-- Generator: Adobe Illustrator 22.0.1, SVG Export Plug-In . SVG Version: 6.00 Build 0)  -->
<svg version="1.1" id="Слой_1" xmlns="http://www.w3.org/2000/svg" xmlns:xlink="http://www.w3.org/1999/xlink" x="0px" y="0px"
	 viewBox="0 0 339 533" style="enable-background:new 0 0 339 533;" xml:space="preserve">
<style type="text/css">
	.st0{fill:#F200FF;}
	.st1{fill:url(#SVGID_1_);}
	.st2{fill:url(#SVGID_2_);}
	.st3{fill:url(#SVGID_3_);}
	.st4{opacity:0.6;fill:url(#SVGID_4_);}
	.st5{opacity:0.6;fill:url(#SVGID_5_);}
	.st6{opacity:0.6;fill:url(#SVGID_6_);}
	.st7{opacity:0.6;fill:url(#SVGID_7_);}
	.st8{opacity:0.6;fill:url(#SVGID_8_);}
	.st9{opacity:0.6;fill:url(#SVGID_9_);}
	.st10{opacity:0.6;fill:url(#SVGID_10_);}
	.st11{opacity:0.6;fill:url(#SVGID_11_);}
	.st12{opacity:0.6;fill:url(#SVGID_12_);}
	.st13{opacity:0.6;fill:url(#SVGID_13_);}
</style>
<g>
	<g>
		<g>
			<path class="st0" d="M328.279,498.15c-0.27-0.807-0.347-1.684-0.238-2.534c-0.646-0.111-1.182-0.281-1.375-0.616
				c-0.821-1.421-5.206-13.18-6.667-14c-5.033-2.826-0.617,0.828-3.066-4.254c-4.161-8.632-8.322-17.264-12.483-25.897
				c-2.074-4.303-4.189-8.667-7.405-12.266c-2.06-2.305-4.527-4.242-6.678-6.47c-2.259-2.34-4.151-4.979-6.156-7.523
				c-0.94-1.193-1.92-2.368-2.934-3.52l0.387-0.071c-2.389-3.791-9.632-10.618-8.819-14.979c-2.902,1.41-6.125,1.631-9.414,1.672
				c-0.85-0.334-1.712-0.646-2.596-0.91c-9.652-2.889-21.602-0.358-26.973,7.869c-1.708,2.615-2.751,5.707-4.51,8.233
				c-0.142,0.047-0.277,0.106-0.421,0.149c-7.391,2.237-15.445-0.458-22.127-4.225c-6.683-3.768-12.743-8.653-19.947-11.394
				c-4.307-1.639-8.923-2.467-13.168-4.25c-10.032-4.212-17.189-13.38-27.38-17.222c-10.306-3.885-21.881-1.702-32.706,0.53
				c-8.147,1.68-16.425,3.406-23.737,7.245C79.491,399.166,67.257,402.031,60,411c-9.374,11.584-18.296,27.943-27,40
				c-7.206,9.982-21.286,32.873-22,45c-0.181,3.081,1.208,7.141,0,10c-1.397,3.307,3.131,0.433,3,4c-0.117,3.187,4.977,4.681,8,6
				c3.023,1.319,10.681,6.905,14,7c33.58,0.959,61.413,0.712,95,0c7.551-0.16,19.467-1.518,27-1c6.946,0.478,12.083-1.774,19-1
				c33.412,3.737,65.09,0.068,98.667,2c10.899,0.627,22.766-2.359,33.333-5c7.955-1.988,15.859-7.522,19.865-14.188
				C327.616,502.265,327.438,499.951,328.279,498.15z"/>
		</g>
		<g>
			<linearGradient id="SVGID_1_" gradientUnits="userSpaceOnUse" x1="110.9379" y1="544.6839" x2="303.6046" y2="129.3505">
				<stop  offset="4.381747e-07" style="stop-color:#DFDFDF"/>
				<stop  offset="0.4355" style="stop-color:#FFFFFF;stop-opacity:0.76"/>
				<stop  offset="1" style="stop-color:#BDBDBD"/>
			</linearGradient>
			<path class="st1" d="M329.899,495.643c-0.566-7.139-3.364-15.081-8.646-23.443L215,303.99V95h-96v208.989L12.747,472.2
				C-6.639,502.89,7.2,528,43.5,528h247c26.016,0,40.489-12.9,39.469-31.505C329.943,496.211,329.923,495.927,329.899,495.643z"/>
		</g>
		<g>
			<g>
				<linearGradient id="SVGID_2_" gradientUnits="userSpaceOnUse" x1="3.9754" y1="311.5" x2="330.0192" y2="311.5">
					<stop  offset="8.763494e-07" style="stop-color:#CCCCCC"/>
					<stop  offset="1" style="stop-color:#CCCCCC"/>
				</linearGradient>
				<path class="st2" d="M329.899,495.643c-0.566-7.139-3.364-15.081-8.646-23.443L215,303.99V95h-96v208.989L12.747,472.2
					C-6.639,502.89,7.2,528,43.5,528h247c26.016,0,40.489-12.9,39.469-31.505C329.943,496.211,329.923,495.927,329.899,495.643z
					 M320.628,508.229C316.09,516.465,305.39,521,290.5,521h-247c-14.89,0-25.589-4.535-30.128-12.771
					c-4.539-8.234-2.659-19.702,5.293-32.291L126,306.015V102h82v204.015l107.335,169.924
					C323.287,488.527,325.166,499.995,320.628,508.229z"/>
			</g>
		</g>
		<linearGradient id="SVGID_3_" gradientUnits="userSpaceOnUse" x1="105.6478" y1="118.0269" x2="234.3145" y2="76.0269">
			<stop  offset="8.763494e-07" style="stop-color:#DFDFDF"/>
			<stop  offset="0.4355" style="stop-color:#FFFFFF"/>
			<stop  offset="1" style="stop-color:#BDBDBD"/>
		</linearGradient>
		<path class="st3" d="M218,111H116c-6.6,0-12-5.4-12-12v-2c0-6.6,5.4-12,12-12h102c6.6,0,12,5.4,12,12v2
			C230,105.6,224.6,111,218,111z"/>
	</g>
	<radialGradient id="SVGID_4_" cx="180" cy="277" r="12.0416" gradientUnits="userSpaceOnUse">
		<stop  offset="0.3604" style="stop-color:#E2E2E2"/>
		<stop  offset="0.9141" style="stop-color:#BDBDBD;stop-opacity:0.7"/>
		<stop  offset="1" style="stop-color:#FFFFFF"/>
	</radialGradient>
	<ellipse class="st4" cx="180" cy="277" rx="11" ry="13"/>
	
		<radialGradient id="SVGID_5_" cx="190.8571" cy="202.6" r="12.0416" gradientTransform="matrix(0.6364 0 0 0.5769 61.5455 95.6154)" gradientUnits="userSpaceOnUse">
		<stop  offset="0.3604" style="stop-color:#E2E2E2"/>
		<stop  offset="0.9141" style="stop-color:#BDBDBD;stop-opacity:0.7"/>
		<stop  offset="1" style="stop-color:#FFFFFF"/>
	</radialGradient>
	<ellipse class="st5" cx="183" cy="212.5" rx="7" ry="7.5"/>
	
		<radialGradient id="SVGID_6_" cx="160" cy="238" r="12.0416" gradientTransform="matrix(0.9091 0 0 0.7692 13.5455 51.9231)" gradientUnits="userSpaceOnUse">
		<stop  offset="0.3604" style="stop-color:#E2E2E2"/>
		<stop  offset="0.9141" style="stop-color:#BDBDBD;stop-opacity:0.7"/>
		<stop  offset="1" style="stop-color:#FFFFFF"/>
	</radialGradient>
	<circle class="st6" cx="159" cy="235" r="10"/>
	
		<radialGradient id="SVGID_7_" cx="211.2857" cy="155.8" r="12.0416" gradientTransform="matrix(0.6364 0 0 0.5769 61.5455 95.6154)" gradientUnits="userSpaceOnUse">
		<stop  offset="0.3604" style="stop-color:#E2E2E2"/>
		<stop  offset="0.9141" style="stop-color:#BDBDBD;stop-opacity:0.7"/>
		<stop  offset="1" style="stop-color:#FFFFFF"/>
	</radialGradient>
	<ellipse class="st7" cx="196" cy="185.5" rx="7" ry="7.5"/>
	
		<radialGradient id="SVGID_8_" cx="143.7143" cy="174.8667" r="12.0416" gradientTransform="matrix(0.6364 0 0 0.5769 61.5455 95.6154)" gradientUnits="userSpaceOnUse">
		<stop  offset="0.3604" style="stop-color:#E2E2E2"/>
		<stop  offset="0.9141" style="stop-color:#BDBDBD;stop-opacity:0.7"/>
		<stop  offset="1" style="stop-color:#FFFFFF"/>
	</radialGradient>
	<ellipse class="st8" cx="153" cy="196.5" rx="7" ry="7.5"/>
	<radialGradient id="SVGID_9_" cx="196" cy="243" r="12.0416" gradientUnits="userSpaceOnUse">
		<stop  offset="0.3604" style="stop-color:#E2E2E2"/>
		<stop  offset="0.9141" style="stop-color:#BDBDBD;stop-opacity:0.7"/>
		<stop  offset="1" style="stop-color:#FFFFFF"/>
	</radialGradient>
	<ellipse class="st9" cx="196" cy="243" rx="11" ry="13"/>
	<radialGradient id="SVGID_10_" cx="151" cy="67" r="12.0416" gradientUnits="userSpaceOnUse">
		<stop  offset="0" style="stop-color:#FF2AE8"/>
		<stop  offset="0.8913" style="stop-color:#FF55D5;stop-opacity:0.7"/>
		<stop  offset="1" style="stop-color:#FFD4FE"/>
	</radialGradient>
	<ellipse class="st10" cx="151" cy="67" rx="11" ry="13"/>
	
		<radialGradient id="SVGID_11_" cx="164.1429" cy="91.6667" r="12.0416" gradientTransform="matrix(0.6364 0 0 0.5769 61.5455 95.6154)" gradientUnits="userSpaceOnUse">
		<stop  offset="0.3604" style="stop-color:#E2E2E2"/>
		<stop  offset="0.9141" style="stop-color:#BDBDBD;stop-opacity:0.7"/>
		<stop  offset="1" style="stop-color:#FFFFFF"/>
	</radialGradient>
	<ellipse class="st11" cx="166" cy="148.5" rx="7" ry="7.5"/>
</g>
<radialGradient id="SVGID_12_" cx="199" cy="63" r="12.0416" gradientTransform="matrix(0.9091 0 0 0.7692 17.0909 17.5385)" gradientUnits="userSpaceOnUse">
	<stop  offset="0" style="stop-color:#FF2AE8"/>
	<stop  offset="0.8913" style="stop-color:#FF55D5;stop-opacity:0.7"/>
	<stop  offset="1" style="stop-color:#FFD4FE"/>
</radialGradient>
<circle class="st12" cx="198" cy="66" r="10"/>
<radialGradient id="SVGID_13_" cx="173" cy="37" r="12.0416" gradientTransform="matrix(0.8182 0 0 0.6154 33.4545 9.2308)" gradientUnits="userSpaceOnUse">
	<stop  offset="0" style="stop-color:#FF2AE8"/>
	<stop  offset="0.8913" style="stop-color:#FF55D5;stop-opacity:0.7"/>
	<stop  offset="1" style="stop-color:#FFD4FE"/>
</radialGradient>
<ellipse class="st13" cx="175" cy="32" rx="9" ry="8"/>
</svg>
