<?xml version="1.0" encoding="utf-8"?>
<!-- Generator: Adobe Illustrator 16.0.0, SVG Export Plug-In . SVG Version: 6.00 Build 0)  -->
<!DOCTYPE svg PUBLIC "-//W3C//DTD SVG 1.1//EN" "http://www.w3.org/Graphics/SVG/1.1/DTD/svg11.dtd">
<svg version="1.1" id="Layer_1" xmlns="http://www.w3.org/2000/svg" xmlns:xlink="http://www.w3.org/1999/xlink" x="0px" y="0px"
	 width="49.945px" height="24.007px" viewBox="0 0 49.945 24.007" enable-background="new 0 0 49.945 24.007" xml:space="preserve">
<g id="editor_list_view_hambuger_menu_glyph">
	<g>
		<g id="XMLID_1_">
			<g>
				<path fill="#FFFFFF" d="M49.942,1.013v1.98c0,0.58-0.51,1.01-1.13,1.01H1.142c-0.65,0-1.14-0.45-1.14-1.01v-1.98
					c0-0.59,0.51-1.01,1.14-1.01h47.67C49.453,0.003,49.942,0.454,49.942,1.013z"/>
				<path fill="#FFFFFF" d="M49.942,11.013v1.98c0,0.58-0.51,1.01-1.13,1.01H1.142c-0.65,0-1.14-0.45-1.14-1.01v-1.98
					c0-0.58,0.51-1.01,1.14-1.01h47.67C49.453,10.003,49.942,10.454,49.942,11.013z"/>
				<path fill="#FFFFFF" d="M49.942,21.013v1.98c0,0.59-0.51,1.01-1.13,1.01H1.142c-0.65,0-1.14-0.45-1.14-1.01v-1.98
					c0-0.58,0.51-1.01,1.14-1.01h47.67C49.453,20.003,49.942,20.463,49.942,21.013z"/>
			</g>
			<g>
			</g>
		</g>
	</g>
</g>
</svg>
