<?xml version="1.0" encoding="utf-8"?>
<!-- Generator: Adobe Illustrator 16.0.0, SVG Export Plug-In . SVG Version: 6.00 Build 0)  -->
<!DOCTYPE svg PUBLIC "-//W3C//DTD SVG 1.1//EN" "http://www.w3.org/Graphics/SVG/1.1/DTD/svg11.dtd">
<svg version="1.1" id="Layer_1" xmlns="http://www.w3.org/2000/svg" xmlns:xlink="http://www.w3.org/1999/xlink" x="0px" y="0px"
	 width="298px" height="345.097px" viewBox="0 0 298 345.097" enable-background="new 0 0 298 345.097" xml:space="preserve">
<g id="XMLID_1_">
	<g>
		<path fill="#DEDEDE" d="M264.57,102.058c20.89,25.64,33.43,58.38,33.43,94.04c0,82.29-66.71,149-149,149s-149-66.71-149-149
			c0-75.85,56.68-138.47,130-147.8v-9.58h-7.66c-10.91,0-19.84-8.72-19.84-19.36c0-10.65,8.93-19.36,19.84-19.36h53.32
			c10.91,0,19.84,8.71,19.84,19.36c0,10.64-8.93,19.36-19.84,19.36H168v9.58c28.11,3.58,53.77,14.99,74.73,31.98l5.39-5.39
			c7.71-7.71,18.93-9.12,24.93-3.12c6,5.99,4.59,17.21-3.13,24.93L264.57,102.058z M259.17,196.098
			c0-60.85-49.33-110.17-110.17-110.17s-110.17,49.32-110.17,110.17c0,60.84,49.33,110.17,110.17,110.17
			S259.17,256.938,259.17,196.098z"/>
	</g>
	<g>
	</g>
</g>
<g id="XMLID_2_">
	<g>
		<path fill="#D22856" d="M149,69.597c69.86,0,126.5,56.64,126.5,126.5c0,69.859-56.64,126.5-126.5,126.5
			c-69.86,0-126.5-56.641-126.5-126.5C22.5,126.237,79.14,69.597,149,69.597z M259.17,196.647c0-60.85-49.33-110.17-110.17-110.17
			s-110.17,49.32-110.17,110.17c0,60.84,49.33,110.17,110.17,110.17S259.17,257.487,259.17,196.647z"/>
	</g>
	<g>
	</g>
</g>
<text transform="matrix(1 0 0 1 96.5 223.0483)" fill="#D22856" font-family="'MyriadPro-Bold'" font-size="96">24</text>
</svg>
