<?xml version="1.0" encoding="utf-8"?>
<!-- Generator: Adobe Illustrator 16.0.0, SVG Export Plug-In . SVG Version: 6.00 Build 0)  -->
<!DOCTYPE svg PUBLIC "-//W3C//DTD SVG 1.1//EN" "http://www.w3.org/Graphics/SVG/1.1/DTD/svg11.dtd">
<svg version="1.1" id="Layer_1" xmlns="http://www.w3.org/2000/svg" xmlns:xlink="http://www.w3.org/1999/xlink" x="0px" y="0px"
	 width="23.867px" height="23.867px" viewBox="0 0 23.867 23.867" enable-background="new 0 0 23.867 23.867" xml:space="preserve">
<g id="XMLID_1_">
	<g>
		<path fill="#FFFFFF" d="M23.643,2.313c0.3,0.29,0.3,0.77,0,1.06l-8.56,8.56l8.56,8.56c0.3,0.29,0.3,0.771,0,1.061l-2.09,2.09
			c-0.14,0.15-0.33,0.22-0.53,0.22s-0.39-0.069-0.53-0.22l-8.56-8.56l-8.56,8.56c-0.14,0.15-0.33,0.22-0.53,0.22
			c-0.2,0-0.39-0.069-0.53-0.22l-2.09-2.09c-0.3-0.29-0.3-0.771,0-1.061l8.56-8.56l-8.56-8.56c-0.3-0.29-0.3-0.77,0-1.06l2.09-2.09
			c0.28-0.29,0.78-0.29,1.06,0l8.56,8.56l8.56-8.56c0.141-0.14,0.33-0.22,0.53-0.22s0.391,0.08,0.53,0.22L23.643,2.313z"/>
	</g>
	<g>
	</g>
</g>
</svg>
