<?xml version="1.0" encoding="utf-8"?>
<!-- Generator: Adobe Illustrator 16.0.0, SVG Export Plug-In . SVG Version: 6.00 Build 0)  -->
<!DOCTYPE svg PUBLIC "-//W3C//DTD SVG 1.1//EN" "http://www.w3.org/Graphics/SVG/1.1/DTD/svg11.dtd">
<svg version="1.1" id="Layer_1" xmlns="http://www.w3.org/2000/svg" xmlns:xlink="http://www.w3.org/1999/xlink" x="0px" y="0px"
	 width="1280px" height="800px" viewBox="0 0 1280 800" enable-background="new 0 0 1280 800" xml:space="preserve">
<g id="XMLID_1_">
	<g>
		<path fill="#D22856" d="M716.69,310.92v140.57L640,497.12l-76.69-45.63V310.92l76.69-8.04l0.8,0.08L716.69,310.92z M706.66,445.78
			V387.2l-20.57,12.28v17.45v2.87v2.38l0.061-0.029v6.979L640,456.75l-45.71-27.48l0.06-6.949l45.7,27.189l-0.11-7.35l-45.72-27.48
			l0.07-6.949l45.54,27.1l-0.12-7.16l-66.37-39.5v57.61L640,485.45L706.66,445.78z M706.66,372.73v-52.77L640,312.97l-66.66,6.99
			v52.73l66.28-39.47h0.01h0.01L706.66,372.73z M688.37,390.47l18.24-10.75l-66.99-39.03v-0.01l-66.14,39.76l66.05,39.26
			l11.291-6.78l-11.08-6.53l0.06-6.95l16.891,9.95l0.13-0.08l5.279-3.529l-22.359-13.29l0.06-6.95l28.33,16.85l4.88-2.87l0.74-0.44
			l0.3-0.18l-34.31-20.4l0.06-6.96l40.15,23.89L688.37,390.47z"/>
	</g>
	<g>
		<polygon fill="none" stroke="#231F20" stroke-miterlimit="10" points="640.8,302.96 640,302.88 563.31,310.92 563.31,451.49 
			640,497.12 716.69,451.49 716.69,310.92 		"/>
		<polygon fill="none" stroke="#231F20" stroke-miterlimit="10" points="706.66,445.78 640,485.45 573.34,445.78 573.34,388.17 
			639.71,427.67 639.83,434.83 594.29,407.73 594.22,414.68 639.94,442.16 640.05,449.51 594.35,422.32 594.29,429.27 640,456.75 
			686.15,429.13 686.15,422.15 686.09,422.18 686.09,419.8 686.09,416.93 686.09,399.48 706.66,387.2 		"/>
		<polygon fill="none" stroke="#231F20" stroke-miterlimit="10" points="706.61,379.72 688.37,390.47 679.95,395.43 639.8,371.54 
			639.74,378.5 674.05,398.9 673.75,399.08 673.01,399.52 668.13,402.39 639.8,385.54 639.74,392.49 662.1,405.78 656.82,409.31 
			656.69,409.39 639.8,399.44 639.74,406.39 650.82,412.92 639.53,419.7 573.48,380.44 639.62,340.68 639.62,340.69 		"/>
		<polyline fill="none" stroke="#231F20" stroke-miterlimit="10" points="639.64,333.21 639.64,333.22 639.63,333.22 639.62,333.22 
			639.62,333.21 		"/>
		<polyline fill="none" stroke="#231F20" stroke-miterlimit="10" points="639.62,333.22 573.34,372.69 573.34,319.96 640,312.97 
			706.66,319.96 706.66,372.73 639.64,333.22 		"/>
	</g>
</g>
</svg>
