<?xml version="1.0" encoding="utf-8"?>
<!-- Generator: Adobe Illustrator 16.0.0, SVG Export Plug-In . SVG Version: 6.00 Build 0)  -->
<!DOCTYPE svg PUBLIC "-//W3C//DTD SVG 1.1//EN" "http://www.w3.org/Graphics/SVG/1.1/DTD/svg11.dtd">
<svg version="1.1" id="Layer_1" xmlns="http://www.w3.org/2000/svg" xmlns:xlink="http://www.w3.org/1999/xlink" x="0px" y="0px"
	 width="153.38px" height="194.24px" viewBox="0 0 153.38 194.24" enable-background="new 0 0 153.38 194.24" xml:space="preserve">
<g id="XMLID_1_">
	<g>
		<path fill="#D22856" d="M153.38,8.04v140.57l-76.69,45.63L0,148.61V8.04L76.69,0l0.8,0.08L153.38,8.04z M143.35,142.9V84.32
			L122.78,96.6v17.45v2.87v2.38l0.061-0.029v6.979l-46.15,27.62l-45.71-27.48l0.06-6.949l45.7,27.189l-0.11-7.35L30.91,111.8
			l0.07-6.949l45.54,27.1l-0.12-7.16l-66.37-39.5v57.61l66.66,39.67L143.35,142.9z M143.35,69.85V17.08l-66.66-6.99l-66.66,6.99
			v52.73l66.28-39.47h0.01h0.01L143.35,69.85z M125.06,87.59l18.24-10.75L76.31,37.81V37.8L10.17,77.56l66.05,39.26l11.291-6.78
			l-11.08-6.53l0.06-6.95l16.891,9.95l0.13-0.08l5.279-3.529L76.43,89.61l0.06-6.95l28.33,16.85l4.88-2.87l0.74-0.44l0.3-0.18
			l-34.31-20.4l0.06-6.96l40.15,23.89L125.06,87.59z"/>
	</g>
	<g>
		<polygon fill="none" stroke="#231F20" stroke-miterlimit="10" points="77.49,0.08 76.69,0 0,8.04 0,148.61 76.69,194.24 
			153.38,148.61 153.38,8.04 		"/>
		<polygon fill="none" stroke="#231F20" stroke-miterlimit="10" points="143.35,142.9 76.69,182.57 10.03,142.9 10.03,85.29 
			76.4,124.79 76.52,131.95 30.98,104.851 30.91,111.8 76.63,139.28 76.74,146.63 31.04,119.44 30.98,126.39 76.69,153.87 
			122.84,126.25 122.84,119.271 122.78,119.3 122.78,116.92 122.78,114.05 122.78,96.6 143.35,84.32 		"/>
		<polygon fill="none" stroke="#231F20" stroke-miterlimit="10" points="143.3,76.84 125.06,87.59 116.64,92.55 76.49,68.66 
			76.43,75.62 110.74,96.02 110.44,96.2 109.7,96.64 104.82,99.51 76.49,82.66 76.43,89.61 98.79,102.9 93.51,106.43 93.38,106.51 
			76.49,96.56 76.43,103.51 87.51,110.04 76.22,116.82 10.17,77.56 76.31,37.8 76.31,37.81 		"/>
		<polyline fill="none" stroke="#231F20" stroke-miterlimit="10" points="76.33,30.33 76.33,30.34 76.32,30.34 76.31,30.34 
			76.31,30.33 		"/>
		<polyline fill="none" stroke="#231F20" stroke-miterlimit="10" points="76.31,30.34 10.03,69.81 10.03,17.08 76.69,10.09 
			143.35,17.08 143.35,69.85 76.33,30.34 		"/>
	</g>
</g>
</svg>
