<?xml version="1.0" encoding="utf-8"?>
<!-- Generator: Adobe Illustrator 16.0.0, SVG Export Plug-In . SVG Version: 6.00 Build 0)  -->
<!DOCTYPE svg PUBLIC "-//W3C//DTD SVG 1.1//EN" "http://www.w3.org/Graphics/SVG/1.1/DTD/svg11.dtd">
<svg version="1.1" id="Layer_1" xmlns="http://www.w3.org/2000/svg" xmlns:xlink="http://www.w3.org/1999/xlink" x="0px" y="0px"
	 width="146.3px" height="40.375px" viewBox="0 0 146.3 40.375" enable-background="new 0 0 146.3 40.375" xml:space="preserve">
<g>
	<g id="XMLID_2_">
		<g>
			<path fill="#FFFFFF" d="M137.38,27.287l8.569,10.561c0.22,0.29,0.351,0.55,0.351,0.939c0,0.67-0.58,1.29-1.28,1.29
				c-0.49,0-0.811-0.26-1.04-0.58l-8.4-10.47l-4.859,4.86v4.899c0,0.71-0.58,1.29-1.29,1.29c-0.67,0-1.25-0.58-1.25-1.29v-20.29
				h-0.011c0-0.71,0.58-1.29,1.261-1.29c0.71,0,1.29,0.58,1.29,1.29v12.33l12.84-13.16c0.29-0.26,0.58-0.46,1-0.46
				c0.68,0,1.229,0.62,1.229,1.26c0,0.35-0.17,0.64-0.42,0.9L137.38,27.287z"/>
			<path fill="#FFFFFF" d="M105.23,21.367v17.45c0,0.68-0.55,1.26-1.26,1.26c-0.681,0-1.221-0.58-1.221-1.26v-20.29h-0.01
				c0-0.67,0.58-1.25,1.26-1.25h0.351c0.58,0,0.939,0.29,1.29,0.74l13.689,17.45v-17c0-0.68,0.54-1.26,1.25-1.26
				c0.681,0,1.23,0.58,1.23,1.26v20.35c0,0.68-0.48,1.19-1.16,1.19h-0.13c-0.55,0-0.94-0.32-1.32-0.771L105.23,21.367z"/>
			<path fill="#FFFFFF" d="M96.15,18.498v20.29c0,0.7-0.58,1.28-1.29,1.28c-0.68,0-1.26-0.58-1.26-1.28v-20.29
				c0-0.71,0.58-1.29,1.26-1.29C95.57,17.208,96.15,17.788,96.15,18.498z"/>
			<path fill="#FFFFFF" d="M86.169,24.617c0-3.22-2.409-4.89-6.05-4.89h-5.7v9.92h5.57v-0.01c3.73,0,6.18-1.99,6.18-4.96V24.617z
				 M88.75,24.518v0.07c0,4.859-4.06,7.369-8.859,7.369h-5.471v6.82c0,0.71-0.579,1.29-1.29,1.29c-0.68,0-1.26-0.58-1.26-1.29
				v-20.12c0-0.7,0.58-1.28,1.26-1.28h7.18C85.4,17.377,88.75,20.078,88.75,24.518z"/>
		</g>
		<g>
		</g>
	</g>
</g>
<path fill="#FFFFFF" d="M60.498,28.266"/>
<g id="XMLID_1_">
	<g>
		<path fill="#FFFFFF" d="M17.42,37.378c4.47,0,8.18-3.261,8.9-7.53c0.08-0.49,0.13-0.99,0.13-1.5c0-0.521-0.05-1.01-0.13-1.5
			c-0.72-4.271-4.43-7.53-8.9-7.53c-4.48,0-8.18,3.26-8.9,7.53c-0.08,0.49-0.13,0.979-0.13,1.5c0,0.51,0.05,1.01,0.13,1.5
			C9.24,34.117,12.94,37.378,17.42,37.378z M51.99,29.848c0.08-0.49,0.14-0.99,0.14-1.5c0-0.521-0.06-1.01-0.14-1.5
			c-0.72-4.271-4.42-7.53-8.9-7.53c-4.47,0-8.18,3.26-8.89,7.53c-0.08,0.49-0.14,0.979-0.14,1.5c0,0.51,0.06,1.01,0.14,1.5
			c0.71,4.27,4.42,7.53,8.89,7.53C47.57,37.378,51.27,34.117,51.99,29.848z M55.29,6.647c0,0,5.17,21.36,5.17,21.37
			c0.27,1.11-0.53,1.82-1.42,1.82c-0.02,0-0.03,0.01-0.04,0.01h-3.98c-0.74,5.92-5.8,10.53-11.93,10.53
			c-6.12,0-11.18-4.61-11.93-10.53h-1.81c-0.74,5.92-5.8,10.53-11.93,10.53c-6.12,0-11.18-4.61-11.92-10.53H1.51
			c-0.01,0-0.02-0.01-0.03-0.01c-0.9,0-1.69-0.71-1.43-1.82c0-0.01,5.18-21.37,5.18-21.37c0.36-2.34,2.59-6.65,8.6-6.65
			c0.82,0,1.5,0.67,1.5,1.5s-0.68,1.5-1.5,1.5c-4.86,0-5.58,3.73-5.64,4.15l-4.77,19.7h2.07c0.74-5.93,5.81-10.53,11.93-10.53
			c6.13,0,11.19,4.601,11.93,10.53h1.82c0.74-5.93,5.8-10.53,11.92-10.53c6.13,0,11.19,4.601,11.93,10.53h2.07l-4.76-19.7
			c-0.07-0.42-0.79-4.15-5.64-4.15c-0.83,0-1.5-0.67-1.5-1.5s0.67-1.5,1.5-1.5C52.69-0.002,54.93,4.308,55.29,6.647z"/>
	</g>
	<g>
	</g>
</g>
</svg>
