<?xml version="1.0" encoding="utf-8"?>
<!-- Generator: Adobe Illustrator 16.0.0, SVG Export Plug-In . SVG Version: 6.00 Build 0)  -->
<!DOCTYPE svg PUBLIC "-//W3C//DTD SVG 1.1//EN" "http://www.w3.org/Graphics/SVG/1.1/DTD/svg11.dtd">
<svg version="1.1" id="Layer_1" xmlns="http://www.w3.org/2000/svg" xmlns:xlink="http://www.w3.org/1999/xlink" x="0px" y="0px"
	 width="74.426px" height="22.859px" viewBox="0 0 74.426 22.859" enable-background="new 0 0 74.426 22.859" xml:space="preserve">
<g>
	<g id="XMLID_1_">
		<g>
			<path fill="#FFFFFF" d="M74.073,20.639c0.22,0.29,0.35,0.55,0.35,0.93c0,0.681-0.58,1.29-1.28,1.29
				c-0.489,0-0.81-0.26-1.029-0.58l-8.41-10.459l-4.86,4.86v4.89c0,0.71-0.58,1.29-1.28,1.29c-0.68,0-1.26-0.58-1.26-1.29V1.289
				c0-0.71,0.58-1.29,1.25-1.29c0.71,0,1.29,0.58,1.29,1.29V13.62l12.851-13.17c0.289-0.26,0.579-0.45,0.989-0.45
				c0.681,0,1.23,0.61,1.23,1.26c0,0.35-0.16,0.64-0.42,0.9l-7.98,7.92L74.073,20.639z"/>
			<path fill="#FFFFFF" d="M49.933,1.26v20.34c0,0.68-0.479,1.2-1.16,1.2h-0.13c-0.55,0-0.93-0.33-1.319-0.78L33.353,4.15v17.45
				c0,0.68-0.55,1.26-1.26,1.26c-0.68,0-1.22-0.58-1.22-1.26V1.32c0-0.68,0.58-1.26,1.25-1.26h0.36c0.58,0,0.93,0.29,1.29,0.75
				l13.68,17.44V1.26c0-0.68,0.55-1.26,1.25-1.26C49.383-0.001,49.933,0.579,49.933,1.26z"/>
			<path fill="#FFFFFF" d="M24.273,1.289v20.28c0,0.71-0.58,1.29-1.29,1.29c-0.68,0-1.25-0.58-1.25-1.29V1.289
				c0-0.71,0.58-1.29,1.25-1.29C23.693-0.001,24.273,0.579,24.273,1.289z"/>
			<path fill="#FFFFFF" d="M16.873,7.309v0.06c0,4.86-4.06,7.38-8.85,7.38h-5.48v6.819c0,0.71-0.58,1.29-1.29,1.29
				c-0.67,0-1.25-0.58-1.25-1.29V1.449c0-0.71,0.58-1.29,1.25-1.29h7.18C13.523,0.159,16.873,2.869,16.873,7.309z M14.293,7.469
				v-0.06c0-3.22-2.41-4.9-6.05-4.9h-5.7v9.92h5.57C11.853,12.429,14.293,10.429,14.293,7.469z"/>
		</g>
		<g>
		</g>
	</g>
</g>
</svg>
