<?xml version="1.0" encoding="utf-8"?>
<!-- Generator: Adobe Illustrator 16.0.0, SVG Export Plug-In . SVG Version: 6.00 Build 0)  -->
<!DOCTYPE svg PUBLIC "-//W3C//DTD SVG 1.1//EN" "http://www.w3.org/Graphics/SVG/1.1/DTD/svg11.dtd">
<svg version="1.1" id="Layer_1" xmlns="http://www.w3.org/2000/svg" xmlns:xlink="http://www.w3.org/1999/xlink" x="0px" y="0px"
	 width="26.752px" height="26.752px" viewBox="0 0 26.752 26.752" enable-background="new 0 0 26.752 26.752" xml:space="preserve">
<g id="XMLID_1_">
	<g>
		<path fill="#F25B26" d="M15.496,13.376l10.82,10.81c0.579,0.591,0.579,1.54,0,2.131c-0.301,0.29-0.681,0.439-1.061,0.439
			c-0.39,0-0.77-0.149-1.07-0.439l-10.81-10.82l-10.81,10.82c-0.3,0.29-0.68,0.43-1.07,0.43c-0.38,0-0.76-0.14-1.06-0.43
			c-0.58-0.591-0.58-1.54,0-2.131l10.82-10.81L0.436,2.556c-0.58-0.58-0.58-1.53,0-2.12c0.59-0.58,1.54-0.58,2.13,0l10.81,10.82
			l10.81-10.82c0.591-0.58,1.54-0.58,2.131,0c0.579,0.59,0.579,1.54,0,2.13L15.496,13.376z"/>
	</g>
	<g>
	</g>
</g>
</svg>
