<?xml version="1.0" encoding="utf-8"?>
<!-- Generator: Adobe Illustrator 16.0.0, SVG Export Plug-In . SVG Version: 6.00 Build 0)  -->
<!DOCTYPE svg PUBLIC "-//W3C//DTD SVG 1.1//EN" "http://www.w3.org/Graphics/SVG/1.1/DTD/svg11.dtd">
<svg fill="#fff" version="1.1" id="Layer_1" xmlns="http://www.w3.org/2000/svg" xmlns:xlink="http://www.w3.org/1999/xlink" x="0px" y="0px"
	 width="419.53px" height="595.28px" viewBox="0 0 419.53 595.28" enable-background="new 0 0 419.53 595.28" xml:space="preserve">
<g>
	<g>
		<defs>
			<rect id="SVGID_1_" x="9.61" y="131.14" width="409.92" height="333"/>
		</defs>
		<clipPath id="SVGID_2_">
			<use xlink:href="#SVGID_1_"  overflow="visible"/>
		</clipPath>
		<path clip-path="url(#SVGID_2_)" d="M419.2,137.854c0-0.046,0.004-0.093,0.004-0.144c0.004-0.055,0-0.11,0-0.168
			c0-0.102,0-0.207-0.004-0.309c-0.004-0.09-0.016-0.175-0.023-0.265c0-0.008,0-0.02,0-0.032c-0.008-0.05-0.008-0.101-0.016-0.152
			c-0.004-0.059-0.012-0.113-0.02-0.168c-0.012-0.086-0.031-0.164-0.047-0.25c-0.02-0.113-0.039-0.226-0.07-0.34
			c0-0.011-0.004-0.023-0.008-0.035c-0.02-0.082-0.047-0.16-0.07-0.238c-0.031-0.113-0.063-0.223-0.102-0.332
			c-0.016-0.055-0.039-0.106-0.059-0.156c-0.016-0.047-0.039-0.094-0.055-0.141c0-0.004-0.004-0.004-0.004-0.004
			c-0.035-0.09-0.07-0.18-0.113-0.27c-0.043-0.101-0.098-0.195-0.148-0.292c-0.023-0.047-0.047-0.094-0.074-0.141
			c-0.023-0.043-0.043-0.082-0.066-0.121c-0.078-0.133-0.168-0.266-0.254-0.395c-0.031-0.039-0.055-0.082-0.082-0.125
			c-0.004-0.004-0.004-0.004-0.008-0.008c-0.004-0.003-0.008-0.011-0.012-0.015c-0.078-0.11-0.168-0.211-0.254-0.317
			c-0.055-0.062-0.105-0.132-0.164-0.195c-0.023-0.027-0.051-0.051-0.074-0.082c-0.043-0.043-0.086-0.082-0.129-0.125
			c-0.086-0.086-0.172-0.176-0.266-0.262l-0.016-0.015c-0.039-0.035-0.078-0.063-0.117-0.094c-0.016-0.016-0.035-0.027-0.055-0.043
			c-0.027-0.023-0.051-0.051-0.078-0.074c-0.016-0.012-0.039-0.024-0.055-0.039c-0.063-0.047-0.121-0.094-0.18-0.141
			c-0.059-0.043-0.121-0.078-0.184-0.121c-0.109-0.078-0.223-0.152-0.34-0.223c-0.082-0.047-0.172-0.093-0.258-0.136
			c-0.094-0.051-0.188-0.102-0.285-0.149c-0.039-0.019-0.078-0.039-0.121-0.054c-0.023-0.012-0.051-0.02-0.078-0.032
			c-0.039-0.015-0.082-0.031-0.121-0.051c-0.082-0.031-0.164-0.066-0.246-0.093c-0.09-0.032-0.18-0.059-0.27-0.086
			c-0.051-0.016-0.102-0.031-0.156-0.047s-0.109-0.031-0.164-0.047c-0.121-0.027-0.238-0.051-0.359-0.074
			c-0.066-0.012-0.133-0.031-0.199-0.039c-0.02-0.004-0.039-0.004-0.055-0.008c-0.109-0.016-0.223-0.023-0.332-0.035
			c-0.098-0.008-0.191-0.02-0.285-0.024c-0.043-0.004-0.086-0.007-0.129-0.007c-0.051,0-0.102,0.003-0.152,0.003h-0.02
			c-0.109,0-0.215-0.003-0.324,0c-0.086,0.004-0.168,0.016-0.254,0.024c-0.059,0.004-0.113,0.008-0.172,0.012
			c-0.063,0.007-0.129,0.015-0.191,0.023c-0.082,0.016-0.168,0.031-0.254,0.047c-0.105,0.019-0.211,0.039-0.316,0.062
			c-0.012,0.004-0.023,0.008-0.035,0.012c-0.09,0.02-0.176,0.047-0.266,0.074c-0.109,0.032-0.215,0.063-0.32,0.098
			c-0.055,0.02-0.105,0.039-0.156,0.059c-0.012,0.004-0.027,0.007-0.039,0.011L13.7,285.167c-2.469,0.953-4.094,3.328-4.09,5.976
			c0.004,2.645,1.633,5.016,4.102,5.965l118.3,45.501l37.91,116.902c0.004,0.016,0.016,0.031,0.02,0.047
			c0.012,0.031,0.02,0.066,0.031,0.102c0.09,0.258,0.199,0.504,0.325,0.75c0.023,0.047,0.05,0.098,0.078,0.148
			c0.117,0.223,0.25,0.438,0.398,0.648c0.016,0.027,0.035,0.059,0.055,0.086c0.008,0.012,0.019,0.027,0.027,0.039
			c0.012,0.016,0.024,0.027,0.035,0.043c0.051,0.066,0.102,0.125,0.153,0.186c0.062,0.076,0.121,0.154,0.183,0.229
			c0.051,0.055,0.106,0.104,0.156,0.16l0.071,0.074c0.039,0.035,0.074,0.074,0.109,0.109c0.039,0.039,0.078,0.078,0.117,0.113
			s0.082,0.07,0.121,0.102c0.121,0.109,0.247,0.213,0.379,0.313c0.008,0.008,0.016,0.012,0.024,0.02
			c0.011,0.006,0.027,0.016,0.039,0.023c0.039,0.025,0.078,0.055,0.121,0.082c0.203,0.145,0.422,0.275,0.644,0.395
			c0.04,0.02,0.071,0.045,0.11,0.063c0.012,0.008,0.023,0.012,0.035,0.02c0.211,0.102,0.43,0.199,0.656,0.285
			c0.047,0.014,0.098,0.027,0.145,0.043c0.062,0.023,0.125,0.043,0.191,0.063c0.274,0.082,0.551,0.148,0.828,0.195
			c0.012,0.002,0.024,0.006,0.039,0.012c0.024,0.004,0.051,0,0.078,0.004c0.305,0.047,0.614,0.072,0.918,0.072
			c0.028,0,0.051-0.006,0.075-0.006c0.261,0,0.527-0.023,0.785-0.059c0.039-0.004,0.082-0.004,0.117-0.012
			c0.059-0.01,0.113-0.027,0.168-0.039c0.203-0.035,0.402-0.082,0.602-0.137c0.066-0.02,0.132-0.031,0.195-0.051
			c0.012-0.004,0.023-0.008,0.035-0.008c0.027-0.012,0.059-0.027,0.09-0.035c0.094-0.031,0.187-0.072,0.281-0.111
			c0.125-0.045,0.246-0.096,0.367-0.154c0.02-0.008,0.039-0.014,0.055-0.023c0.012-0.004,0.023-0.008,0.035-0.012
			c0.059-0.027,0.117-0.064,0.176-0.094c0.121-0.066,0.242-0.137,0.363-0.207c0.078-0.047,0.156-0.098,0.231-0.148c0,0,0,0,0.004,0
			c0.019-0.016,0.043-0.029,0.066-0.043c0.105-0.074,0.207-0.156,0.309-0.236c0.058-0.045,0.121-0.088,0.175-0.135
			c0.067-0.055,0.125-0.115,0.188-0.168c0.047-0.043,0.09-0.086,0.137-0.133c0.195-0.191,0.382-0.391,0.554-0.607
			c0.016-0.014,0.032-0.029,0.043-0.049c0.02-0.023,0.035-0.051,0.055-0.076c0.012-0.018,0.027-0.033,0.043-0.049l46.766-63.195
			c2.102-2.844,1.504-6.852-1.34-8.953c-2.84-2.102-6.848-1.504-8.949,1.336l-20.32,27.461l16.149-44.086l152.858,58.016
			c0.734,0.277,1.504,0.418,2.27,0.418c1.121,0,2.234-0.293,3.227-0.871c1.668-0.973,2.809-2.648,3.102-4.559l44.219-288.403
			c0.004-0.012,0-0.028,0.004-0.039c0.016-0.11,0.023-0.215,0.035-0.321C419.185,138.049,419.196,137.952,419.2,137.854
			L419.2,137.854z M369.255,161.261L186.45,294.025c-2.86,2.074-3.492,6.077-1.414,8.938c1.25,1.727,3.203,2.639,5.179,2.639
			c1.305,0,2.622-0.396,3.758-1.221l174.629-126.828L205.166,361.069c-0.633,0.625-1.153,1.391-1.489,2.277
			c-0.058,0.152-0.101,0.305-0.144,0.457l-27.152,74.121l-33.133-102.164c-0.617-1.906-2.047-3.326-3.782-3.996
			c-0.011-0.004-0.019-0.008-0.027-0.012L33.791,291.12L369.255,161.261z M363.462,417.147l-142.82-54.207l182.566-204.997
			L363.462,417.147z M363.462,417.147"/>
	</g>
	<path d="M158.016,328.991c1.301,0,2.617-0.398,3.754-1.225l12.442-9.033c2.859-2.074,3.492-6.078,1.418-8.938
		c-2.079-2.861-6.082-3.496-8.942-1.418l-12.437,9.035c-2.864,2.078-3.496,6.078-1.418,8.936
		C154.083,328.077,156.036,328.991,158.016,328.991L158.016,328.991z M158.016,328.991"/>
</g>
</svg>
