<?xml version="1.0" encoding="iso-8859-1"?>
<!-- Generator: Adobe Illustrator 16.0.0, SVG Export Plug-In . SVG Version: 6.00 Build 0)  -->
<!DOCTYPE svg PUBLIC "-//W3C//DTD SVG 1.1//EN" "http://www.w3.org/Graphics/SVG/1.1/DTD/svg11.dtd" [
	<!ENTITY ns_flows "http://ns.adobe.com/Flows/1.0/">
	<!ENTITY ns_extend "http://ns.adobe.com/Extensibility/1.0/">
	<!ENTITY ns_ai "http://ns.adobe.com/AdobeIllustrator/10.0/">
	<!ENTITY ns_graphs "http://ns.adobe.com/Graphs/1.0/">
]>
<svg version="1.1" id="Layer_1" xmlns:x="&ns_extend;" xmlns:i="&ns_ai;" xmlns:graph="&ns_graphs;"
	 xmlns="http://www.w3.org/2000/svg" xmlns:xlink="http://www.w3.org/1999/xlink" xmlns:a="http://ns.adobe.com/AdobeSVGViewerExtensions/3.0/"
	 x="0px" y="0px" width="369.4765625px" height="100.875px" viewBox="-0.0002441 0 369.4765625 100.875"
	 enable-background="new -0.0002441 0 369.4765625 100.875" xml:space="preserve">
<g>
	<path fill="#FFFFFF" d="M119.8581543,11.4267578C127.0437012,8.9980469,127.5905762,0,120.5085449,0
		c-1.9482422,0-4.2753906,1.3691406-5.8837891,4.1738281l-9.5791016,16.559082
		c-0.4443359,0.7871094-0.890625,1.4370117-1.3691406,2.019043c-2.4638672-3.3867188-1.7431641-8.4511719,1.7109375-10.6738281
		l-1.4375-1.8129883c-7.4580078,4.7548828-5.2685547,18.4750977,7.1845703,18.4750977
		C121.7751465,28.7392578,126.7009277,15.9770508,119.8581543,11.4267578z M111.0661621,26.0019531
		c-2.1210938,0-3.7988281-0.4790039-5.1308594-1.2319336c0.6132813-0.7182617,1.2304688-1.6069336,1.7773438-2.5322266
		l5.9863281-10.3666992l0.9580078,0.1030273C123.0056152,13.7202148,119.6882324,26.0019531,111.0661621,26.0019531z
		 M114.8981934,9.7851563l2.8730469-4.9272461c2.6005859-4.4819336,5.9189453-1.847168,4.1396484,1.5048828
		C120.5427246,8.9301758,118.5241699,9.7158203,114.8981934,9.7851563z"/>
	<path fill="#FFFFFF" d="M259.2087402,18.9541016l-0.2373047,0.2739258
		c-1.9853516,2.3261719-4.3466797,4.2431641-6.5019531,4.9951172c0.5810547-0.9243164,1.0263672-1.9160156,1.4716797-2.6689453
		l3.9345703-6.7392578c3.3193359-5.6450195-2.0527344-7.5268555-5.6796875-4.2758789l0.71875-1.2329102h-3.5585938
		l-5.5634766,9.6547852c-0.0048828-0.0019531-0.0087891-0.0039063-0.0117188-0.0058594l-0.2402344,0.2739258
		c-1.6074219,1.7451172-3.5927734,2.6000977-5.3710938,2.6337891l3.3535156-5.7807617
		c2.1552734-3.7290039,0.171875-7.2529297-3.1826172-7.2529297c-2.7363281,0-4.8564453,1.0947266-6.9101563,4.6538086
		l-1.7451172,3.0439453l-1.4521484,2.4863281l-0.1904297,0.2167969c-2.5654297,2.9770508-5.0625,5.3369141-6.6376953,5.3369141
		c-0.7871094,0-1.2304688-0.546875-0.4111328-1.949707l5.1328125-8.9980469
		c1.5390625-2.703125,0.0693359-4.6533203-1.9160156-4.6533203c-1.5390625,0-3.1826172,0.8549805-4.9609375,2.7041016
		l5.6796875-9.8876953h-3.5576172l-9.9238281,17.2148438l-0.2041016,0.2329102
		c-1.2988281,1.5400391-2.8740234,2.9082031-4.2773438,3.8662109c1.1318359-3.387207,0.8925781-8.5874023,3.0800781-13.137207
		l-2.6689453-1.4379883c-1.4707031,2.0200195-4.6855469,6.671875-7.9023438,10.4350586l0,0l0,0l-0.2392578,0.2739258
		c-2.5654297,2.9770508-5.0644531,5.3369141-6.6367188,5.3369141c-0.7871094,0-1.2324219-0.546875-0.4111328-1.949707
		l3.5585938-6.2270508c1.2314453-2.1552734,0.6494141-3.4213867-0.5136719-4.8242188l-1.984375-2.394043
		c-0.5136719-0.6508789-0.5136719-1.3686523,0.2041016-2.0527344l-1.8466797-2.019043
		c-2.0195313,1.8129883-2.1894531,3.8320313-0.9238281,5.4741211l0.3076172,0.4106445
		c-1.5732422,2.2231445-3.6943359,5.2338867-6.0205078,7.9711914l-0.2382813,0.2739258
		c-2.5664063,2.9770508-5.8515625,5.3369141-8.3486328,5.3369141c-2.1894531,0-3.4892578-1.3676758-1.8476563-4.2416992
		l0.3417969-0.6162109c2.2919922,0.9580078,6.6044922,0.512207,9.2724609-4.1049805l0.5126953-0.8901367
		c1.9160156-3.2836914,0.0683594-5.7480469-2.8408203-5.7480469c-2.8720703,0-5.1650391,1.5053711-6.6708984,4.105957
		l-3.4472656,5.9150391l-0.2138672,0.2441406c-1.6074219,1.7788086-3.6259766,2.6000977-5.3710938,2.6342773l3.3544922-5.78125
		c0.8896484-1.5742188,1.3330078-2.9418945,1.3330078-4.0708008c0-1.8129883-1.2304688-3.1821289-3.2167969-3.1821289
		c-0.8535156,0-1.6074219,0.3081055-2.3261719,0.7871094l4.5175781-7.8349609h-3.6269531l-9.9746094,17.2338867l-0.1875,0.2138672
		c-2.5664063,2.9770508-5.0625,5.3369141-6.6376953,5.3369141c-0.7861328,0-1.2314453-0.546875-0.4101563-1.949707
		l3.5576172-6.2270508c1.2314453-2.1552734,0.6494141-3.4208984-0.5126953-4.8242188l-1.984375-2.394043
		c-0.5136719-0.6508789-0.5136719-1.3686523,0.2050781-2.0527344l-1.8466797-2.019043
		c-2.0205078,1.8129883-2.1904297,3.8320313-0.9248047,5.4741211l0.3085938,0.4106445
		c-1.5742188,2.2231445-3.6953125,5.234375-6.0205078,7.9711914l-0.2392578,0.2739258
		c-2.5664063,2.9770508-5.0634766,5.3369141-6.6367188,5.3369141c-0.7880859,0-1.2333984-0.546875-0.4121094-1.949707
		l5.7490234-10.0581055h-2.0205078c0.1376953-1.5058594-1.4013672-3.5932617-3.7285156-3.5932617
		c-1.9160156,0-4.5830078,1.5053711-6.0898438,4.1064453l-4.9941406,8.6206055
		c-1.5068359,2.6352539-0.4443359,5.0639648,2.4287109,5.0639648c1.4365234,0,3.2158203-0.9238281,4.9267578-2.3266602
		c0.1708984,1.3686523,1.2666016,2.3266602,3.0800781,2.3266602c2.9404297,0,6.328125-3.1469727,9.2714844-6.5688477l0,0
		c1.7109375-1.9838867,3.0449219-3.7631836,5.8847656-7.6289063l0.4785156,0.5820313
		c0.4443359,0.5820313,0.6152344,1.2998047,0.2050781,2.0180664l-3.7636719,6.534668
		c-1.5039063,2.6352539-0.4433594,5.0639648,2.4287109,5.0639648c2.0634766,0,4.3447266-1.5488281,6.5371094-3.6518555
		c0,0.0083008-0.0009766,0.0170898-0.0009766,0.0249023c0,2.4291992,1.8144531,3.7973633,4.1064453,3.7973633
		c1.9814453,0,4.2753906-1.0263672,6.0556641-3.3183594c0.2714844,0.0341797,0.5117188,0.0341797,0.7861328,0.0341797
		c1.3212891,0,3.1181641-0.5039063,4.7246094-1.4038086c-0.1865234,2.5678711,1.6767578,4.5175781,4.8212891,4.5175781
		c4.0371094,0,8.0390625-3.1469727,10.9814453-6.5688477c1.7119141-1.9838867,3.0449219-3.7631836,5.8847656-7.6289063
		l0.4785156,0.5820313c0.4443359,0.5820313,0.6152344,1.2998047,0.2050781,2.0180664l-3.7636719,6.534668
		c-1.5058594,2.6352539-0.4443359,5.0639648,2.4287109,5.0639648c2.9433594,0,6.3300781-3.1469727,9.2724609-6.5688477h-0.0009766
		h0.0009766c2.0175781-2.3256836,3.7978516-4.8237305,5.0625-6.5c-1.4013672,3.6962891-0.6494141,10.3330078-4.0361328,10.3330078
		c-1.1962891,0-1.6777344-1.2998047-1.6777344-1.2998047l-2.2236328,1.1640625c0,0,0.6494141,2.8740234,3.9003906,2.8740234
		c0.3417969,0,0.6484375-0.0341797,0.9902344-0.0683594c0.0361328,0,0.0693359-0.0336914,0.1044922-0.0336914
		c1.8720703-0.2480469,3.734375-1.1362305,5.4658203-2.3642578l-1.2236328,2.1240234h3.5927734l5.4042969-9.4077148
		c5.4755859-6.8764648,7.9033203-5.9873047,6.3632813-3.3530273l-4.6181641,8.0400391
		c-1.5058594,2.6347656-0.4443359,5.0639648,2.4296875,5.0639648c2.0664063,0,4.3535156-1.5561523,6.5507813-3.6669922
		c-0.0078125,4.5366211,6.2939453,5.421875,10.1455078,0.5527344h0.7880859c1.0732422,0,2.4638672-0.3339844,3.8105469-0.9438477
		l-6.4794922,11.2416992h3.5927734l10.640625-18.5087891c3.9677734-5.4057617,6.4667969-3.4208984,5.5429688-1.8129883
		l-5.3701172,9.3061523c-0.5830078,1.0268555-1.9179688,1.3339844-2.5673828,0l-2.0185547,0.9580078
		c0,0,0.6494141,2.8740234,3.8994141,2.8740234h0.2060547c5.1660156-0.1030273,8.5527344-3.1821289,11.4609375-6.5693359
		C260.338623,19.6381836,259.7233887,19.0898438,259.2087402,18.9541016z M178.1931152,13.9589844
		c2.0527344-3.5239258,5.6777344-2.9418945,3.5576172,0.7519531l-0.5126953,0.8901367
		c-1.7109375,2.9077148-4.0039063,2.8398438-5.3369141,2.3608398L178.1931152,13.9589844z M132.5876465,19.5698242
		c-2.1552734,3.3862305-4.2773438,4.9951172-5.7490234,4.9951172c-0.7871094,0-1.2304688-0.546875-0.4101563-1.949707
		l4.9628906-8.6552734c1.9150391-3.3188477,5.7119141-2.4628906,3.9677734,0.7519531L132.5876465,19.5698242z
		 M159.3757324,24.4282227c-0.7880859,0-1.4375-0.4790039-1.4375-1.3691406c0-0.5131836,0.2060547-1.0942383,0.6171875-1.847168
		l1.265625-2.1889648c0.2744141,1.5390625,0.9580078,2.8740234,2.2578125,3.6938477
		C161.3601074,23.8798828,160.2663574,24.4282227,159.3757324,24.4282227z M163.104248,20.972168
		c-0.9228516-0.684082-1.5058594-1.7783203-1.5058594-3.2163086c0-2.5317383,2.4648438-6.6708984,4.4814453-6.6708984
		c0.7871094,0,1.3349609,0.5820313,1.3349609,1.5400391c0,0.5810547-0.2050781,1.2998047-0.6845703,2.1210938L163.104248,20.972168z
		 M236.1843262,19.1938477h-0.1699219c-1.1630859,0-2.0888672,0.9580078-2.0888672,2.1210938
		c0,0.4448242,0.1376953,0.8549805,0.3427734,1.1982422l-0.0341797,0.0678711
		c-1.6757813,2.8730469-5.7470703,2.3261719-3.6259766-1.3691406l2.703125-4.6879883l1.7099609-2.9077148
		c2.4970703-4.2421875,5.9189453-2.5664063,3.7636719,1.1289063L236.1843262,19.1938477z"/>
</g>
<rect x="1.6775846" y="69.2332077" transform="matrix(0.7072275 -0.706986 0.706986 0.7072275 -50.1296806 25.4968147)" fill="#FFFFFF" width="8.0847721" height="8.0833902"/>
<rect x="353.6665649" y="69.2167511" transform="matrix(0.7072276 -0.706986 0.706986 0.7072276 52.9341736 274.342865)" fill="#FFFFFF" width="8.0833902" height="8.0840816"/>
<g>
	<polygon fill="#636466" points="46.798584,73.4804688 48.8815918,73.4804688 48.8815918,65.15625 52.1569824,65.15625 
		52.1569824,63.0722656 46.798584,63.0722656 	"/>
	<path fill="#636466" d="M61.6911621,75.0087891V62.3242188c0-1.7949219-1.0673828-3.3251953-2.5634766-4.0693359
		c0.2978516,0.6025391,0.4804688,1.2705078,0.4804688,1.9863281v12.6855469c0,1.4160156-0.6152344,2.6484375-1.6621094,3.5107422
		c0.9238281,0.9853516,1.6621094,2.0947266,1.6621094,3.6943359v14.1044922c0,2.4628906-2.09375,4.5566406-4.5576172,4.5566406
		H41.4909668v2.0839844h15.6425781c2.4638672,0,4.5576172-2.09375,4.5576172-4.5566406V82.2148438
		c0-1.6015625-0.7382813-2.7089844-1.6621094-3.6953125C61.0759277,77.6582031,61.6911621,76.4248047,61.6911621,75.0087891z"/>
	<polygon fill="#636466" points="46.798584,91.3398438 48.8815918,91.3398438 48.8815918,82.9550781 52.1569824,82.9550781 
		52.1569824,80.8710938 46.798584,80.8710938 	"/>
</g>
<g>
	<polygon fill="#636466" points="79.8103027,91.3398438 81.8933105,91.3398438 81.8933105,65.15625 85.1677246,65.15625 
		85.1677246,63.0722656 79.8103027,63.0722656 	"/>
	<path fill="#636466" d="M92.1394043,58.2539063c0.2978516,0.6015625,0.4794922,1.2695313,0.4794922,1.9863281V94.234375
		c0,2.4628906-2.09375,4.5566406-4.5566406,4.5566406H76.9782715c-0.7177734,0-1.3857422-0.1835938-1.9873047-0.4804688
		c0.7441406,1.4960938,2.2744141,2.5644531,4.0703125,2.5644531h11.0849609c2.4628906,0,4.5566406-2.09375,4.5566406-4.5566406
		V62.3242188C94.7019043,60.5292969,93.6345215,58.9990234,92.1394043,58.2539063z"/>
</g>
<g>
	<polygon fill="#636466" points="112.8200684,73.4804688 114.9030762,73.4804688 114.9030762,65.15625 118.1794434,65.15625 
		118.1794434,63.0722656 112.8200684,63.0722656 	"/>
	<path fill="#636466" d="M125.0651855,82.5234375c1.6005859-0.7402344,2.5859375-2.3398438,2.5859375-4.0644531V62.3242188
		c0-1.8164063-1.0605469-3.3642578-2.5664063-4.0976563c0.2988281,0.6083984,0.4833984,1.2851563,0.4833984,2.0136719V76.375
		c0,1.7246094-0.9853516,3.3251953-2.5859375,4.0644531l3.0791016,18.3515625h-5.6582031l0.3505859,2.0839844h7.3916016
		L125.0651855,82.5234375z"/>
	<polygon fill="#636466" points="115.6530762,80.8710938 112.8200684,80.8710938 112.8200684,98.7910156 107.5144043,98.7910156 
		107.5144043,100.875 114.9030762,100.875 114.9030762,82.9550781 116.0036621,82.9550781 	"/>
</g>
<g>
	<polygon fill="#636466" points="144.8483887,91.3398438 146.9313965,91.3398438 146.9313965,65.15625 150.2058105,65.15625 
		150.2058105,63.0722656 144.8483887,63.0722656 	"/>
	<path fill="#636466" d="M157.1765137,58.2539063c0.2988281,0.6015625,0.4804688,1.2695313,0.4804688,1.9863281V94.234375
		c0,2.4628906-2.09375,4.5566406-4.5566406,4.5566406h-11.0859375c-0.7167969,0-1.3847656-0.1835938-1.9853516-0.4804688
		c0.7431641,1.4960938,2.2724609,2.5644531,4.0683594,2.5644531h11.0859375c2.4628906,0,4.5566406-2.09375,4.5566406-4.5566406
		V62.3242188C159.7399902,60.5292969,158.6726074,58.9990234,157.1765137,58.2539063z"/>
</g>
<g>
	<polygon fill="#636466" points="177.8581543,91.3398438 179.9411621,91.3398438 179.9411621,65.15625 183.2165527,65.15625 
		183.2165527,63.0722656 177.8581543,63.0722656 	"/>
	<path fill="#636466" d="M190.1882324,58.2539063c0.2978516,0.6015625,0.4794922,1.2695313,0.4794922,1.9863281V94.234375
		c0,2.4628906-2.09375,4.5566406-4.5566406,4.5566406h-13.5605469V100.875h15.6435547
		c2.4628906,0,4.5566406-2.09375,4.5566406-4.5566406V62.3242188
		C192.7507324,60.5292969,191.6843262,58.9990234,190.1882324,58.2539063z"/>
</g>
<polygon fill="#636466" points="211.2390137,57.765625 211.2390137,98.7910156 205.9333496,98.7910156 205.9333496,100.875 
	213.3220215,100.875 213.3220215,57.765625 "/>
<g>
	<polygon fill="#636466" points="244.1257324,57.765625 244.1257324,98.7910156 238.220459,98.7910156 238.8190918,100.875 
		246.2087402,100.875 246.2087402,57.765625 	"/>
	<polygon fill="#636466" points="231.3161621,79.9472656 231.3161621,98.7910156 226.0095215,98.7910156 226.0095215,100.875 
		233.3991699,100.875 233.3991699,87.1894531 	"/>
</g>
<g>
	<path fill="#636466" d="M263.5778809,82.9550781h6.1074219v-2.0839844h-8.1904297
		c-0.7216797,0-1.3935547-0.1816406-1.9980469-0.4765625C260.236084,81.9082031,261.7741699,82.9550781,263.5778809,82.9550781z"/>
	<polygon fill="#636466" points="266.4099121,85.7246094 264.3269043,86.2109375 264.3269043,91.3398438 266.4099121,91.3398438 	
		"/>
	<path fill="#636466" d="M276.6560059,58.2539063c0.2978516,0.6015625,0.4804688,1.2695313,0.4804688,1.9863281v8.7441406
		l-5.3681641,1.2421875v2.5654297l7.4501953-1.7255859v-8.7431641
		C279.220459,60.5292969,278.1520996,58.9990234,276.6560059,58.2539063z"/>
	<path fill="#636466" d="M276.6560059,76.0517578c0.2978516,0.6025391,0.4804688,1.2685547,0.4804688,1.9853516V94.234375
		c0,2.4628906-2.0947266,4.5566406-4.5576172,4.5566406h-11.0849609c-0.7167969,0-1.3847656-0.1835938-1.9873047-0.4804688
		c0.7441406,1.4960938,2.2744141,2.5644531,4.0703125,2.5644531h11.0849609c2.4628906,0,4.5576172-2.09375,4.5576172-4.5566406
		V80.1210938C279.220459,78.3261719,278.1530762,76.7958984,276.6560059,76.0517578z"/>
	<polygon fill="#636466" points="264.3269043,63.0722656 264.3269043,73.4804688 266.4099121,73.4804688 266.4099121,65.15625 
		269.6862793,65.15625 269.6862793,63.0722656 	"/>
</g>
<g>
	<polygon fill="#636466" points="298.017334,80.8710938 297.338623,80.8710938 297.338623,98.7910156 292.0319824,98.7910156 
		292.0319824,100.875 299.4216309,100.875 299.4216309,85.3515625 	"/>
	<polygon fill="#636466" points="313.1550293,57.765625 310.4030762,57.765625 304.1745605,77.1757813 311.0720215,98.7910156 
		305.0661621,98.7910156 305.6433105,100.6289063 305.7038574,100.875 313.1550293,100.875 306.2575684,79.2597656 	"/>
</g>
<polygon fill="#636466" points="330.5349121,57.765625 330.5349121,98.7910156 325.229248,98.7910156 325.229248,100.875 
	332.6179199,100.875 332.6179199,57.765625 "/>
<rect x="361.5187378" y="79.6474915" transform="matrix(-0.7070464 0.7071671 -0.7071671 -0.7070464 681.3953857 -120.0351105)" fill="#636466" width="8.0840816" height="2.9471989"/>
<rect x="9.5325651" y="79.6631165" transform="matrix(-0.7071068 0.7071068 -0.7071068 -0.7071068 80.5462112 128.9100952)" fill="#636466" width="8.0847721" height="2.9471989"/>
<g>
	<path fill="#FFFFFF" d="M55.6491699,68.9667969c0,1.4160156-0.6152344,2.6484375-1.6621094,3.5117188
		c0.9238281,0.984375,1.6621094,2.09375,1.6621094,3.6933594v14.1035156c0,2.4628906-2.09375,4.5566406-4.5576172,4.5566406
		H35.4499512V51.7246094h15.6425781c2.4638672,0,4.5576172,2.03125,4.5576172,4.5576172v12.6845703H55.6491699z
		 M48.197998,59.1142578h-5.3583984v10.4072266h5.3583984V59.1142578z M48.197998,76.9121094h-5.3583984v10.46875h5.3583984
		V76.9121094z"/>
	<path fill="#FFFFFF" d="M84.104248,51.7246094c2.4628906,0,4.5566406,2.03125,4.5566406,4.5576172v33.9931641
		c0,2.4638672-2.09375,4.5576172-4.5566406,4.5576172H73.0192871c-2.5253906,0-4.5585938-2.09375-4.5585938-4.5576172V56.2822266
		c0-2.5253906,2.0322266-4.5576172,4.5585938-4.5576172H84.104248z M81.2087402,59.1142578h-5.3574219v28.2666016h5.3574219
		V59.1142578z"/>
	<path fill="#FFFFFF" d="M114.7116699,94.8320313l-3.0175781-17.9199219h-2.8330078v17.9199219h-7.3896484V51.7246094h15.6425781
		c2.4628906,0,4.4951172,2.03125,4.4951172,4.5576172v16.1347656c0,1.7255859-0.9853516,3.3251953-2.5859375,4.0634766
		l3.0791016,18.3515625H114.7116699z M114.220459,59.1142578h-5.3583984v10.4072266h5.3583984V59.1142578z"/>
	<path fill="#FFFFFF" d="M149.142334,51.7246094c2.4628906,0,4.5566406,2.03125,4.5566406,4.5576172v33.9931641
		c0,2.4638672-2.09375,4.5576172-4.5566406,4.5576172h-11.0859375c-2.5244141,0-4.5576172-2.09375-4.5576172-4.5576172V56.2822266
		c0-2.5253906,2.0322266-4.5576172,4.5576172-4.5576172H149.142334z M146.2468262,59.1142578h-5.3574219v28.2666016h5.3574219
		V59.1142578z"/>
	<path fill="#FFFFFF" d="M182.1520996,51.7246094c2.4628906,0,4.5566406,2.03125,4.5566406,4.5576172v33.9931641
		c0,2.4638672-2.09375,4.5576172-4.5566406,4.5576172h-15.6425781V51.7246094H182.1520996z M179.2575684,59.1142578h-5.3574219
		v28.2666016h5.3574219V59.1142578z"/>
	<path fill="#FFFFFF" d="M199.8913574,51.7246094h7.3896484v43.1074219h-7.3896484V51.7246094z"/>
	<path fill="#FFFFFF" d="M240.166748,51.7246094v43.1074219h-7.3896484l-5.4199219-18.8427734v18.8427734h-7.390625V51.7246094
		h7.328125l5.4199219,17.6738281V51.7246094H240.166748z"/>
	<path fill="#FFFFFF" d="M268.6208496,69.5214844c2.4628906,0,4.5576172,2.0332031,4.5576172,4.5576172v16.1962891
		c0,2.4638672-2.0947266,4.5576172-4.5576172,4.5576172h-11.0849609c-2.5244141,0-4.5576172-2.09375-4.5576172-4.5576172v-8.8662109
		l7.3896484-1.7255859v7.6972656h5.3583984v-10.46875h-8.1904297c-2.5244141,0-4.5576172-2.0332031-4.5576172-4.5585938V56.2822266
		c0-2.5253906,2.03125-4.5576172,4.5576172-4.5576172h11.0849609c2.4628906,0,4.5576172,2.03125,4.5576172,4.5576172v8.7431641
		l-7.4511719,1.7255859v-7.6367188h-5.3583984v10.4072266H268.6208496z"/>
	<path fill="#FFFFFF" d="M300.2155762,73.2167969l6.8974609,21.6152344h-7.4511719l-0.0615234-0.2460938l-5.5429688-17.6738281
		h-0.6787109v17.9199219h-7.3896484V51.7246094h7.3896484v17.796875h0.5556641l5.6660156-17.796875h7.5126953
		L300.2155762,73.2167969z"/>
	<path fill="#FFFFFF" d="M319.1872559,51.7246094h7.3896484v43.1074219h-7.3896484V51.7246094z"/>
</g>
</svg>
