<?xml version="1.0" encoding="iso-8859-1"?>
<!-- Generator: Adobe Illustrator 16.0.0, SVG Export Plug-In . SVG Version: 6.00 Build 0)  -->
<!DOCTYPE svg PUBLIC "-//W3C//DTD SVG 1.1//EN" "http://www.w3.org/Graphics/SVG/1.1/DTD/svg11.dtd" [
	<!ENTITY ns_flows "http://ns.adobe.com/Flows/1.0/">
	<!ENTITY ns_extend "http://ns.adobe.com/Extensibility/1.0/">
	<!ENTITY ns_ai "http://ns.adobe.com/AdobeIllustrator/10.0/">
	<!ENTITY ns_graphs "http://ns.adobe.com/Graphs/1.0/">
]>
<svg version="1.1" id="Layer_1" xmlns:x="&ns_extend;" xmlns:i="&ns_ai;" xmlns:graph="&ns_graphs;"
	 xmlns="http://www.w3.org/2000/svg" xmlns:xlink="http://www.w3.org/1999/xlink" xmlns:a="http://ns.adobe.com/AdobeSVGViewerExtensions/3.0/"
	 x="0px" y="0px" width="225.8144531px" height="30.0395508px" viewBox="0.0002444 0 225.8144531 30.0395508"
	 enable-background="new 0.0002444 0 225.8144531 30.0395508" xml:space="preserve">
<g>
	
		<rect x="1.0228505" y="10.7018766" transform="matrix(0.7071562 -0.7070574 0.7070574 0.7071562 -8.2907658 6.3275566)" fill="#FFFFFF" width="4.9411159" height="4.9414611"/>
	
		<rect x="216.1493378" y="10.7115412" transform="matrix(0.7071068 -0.7071068 0.7071068 0.7071068 54.7106171 158.448349)" fill="#FFFFFF" width="4.9400802" height="4.9421515"/>
	<g>
		<polygon fill="#636466" points="28.6018066,13.296875 29.8752441,13.296875 29.8752441,8.2089844 31.8771973,8.2089844 
			31.8771973,6.9360352 28.6018066,6.9360352 		"/>
		<path fill="#636466" d="M37.7053223,14.230957V6.4780273c0-1.097168-0.6533203-2.0322266-1.5673828-2.4868164
			c0.1816406,0.3676758,0.2929688,0.7758789,0.2929688,1.2128906v7.7529297c0,0.8647461-0.375,1.6191406-1.015625,2.1459961
			c0.5634766,0.6025391,1.015625,1.2802734,1.015625,2.2587891v8.6191406c0,1.5048828-1.2792969,2.7851563-2.7851563,2.7851563
			h-8.2871094v1.2734375h9.5615234c1.5048828,0,2.7851563-1.2792969,2.7851563-2.7851563v-8.6191406
			c0-0.9785156-0.4511719-1.65625-1.0166016-2.2597656C37.3283691,15.8500977,37.7053223,15.097168,37.7053223,14.230957z"/>
		<polygon fill="#636466" points="28.6018066,24.2114258 29.8752441,24.2114258 29.8752441,19.0864258 31.8771973,19.0864258 
			31.8771973,17.8129883 28.6018066,17.8129883 		"/>
	</g>
	<g>
		<polygon fill="#636466" points="48.7775879,24.2114258 50.0510254,24.2114258 50.0510254,8.2089844 52.0529785,8.2089844 
			52.0529785,6.9360352 48.7775879,6.9360352 		"/>
		<path fill="#636466" d="M56.3127441,3.9912109c0.1835938,0.3676758,0.2939453,0.7758789,0.2939453,1.2128906V25.980957
			c0,1.5048828-1.2792969,2.7851563-2.7851563,2.7851563h-6.7734375c-0.4384766,0-0.8466797-0.1123047-1.2148438-0.2949219
			c0.4550781,0.9160156,1.3896484,1.5683594,2.4863281,1.5683594h6.7753906c1.5048828,0,2.7851563-1.2792969,2.7851563-2.7851563
			V6.4780273C57.880127,5.3808594,57.2277832,4.4458008,56.3127441,3.9912109z"/>
	</g>
	<g>
		<polygon fill="#636466" points="68.9533691,13.296875 70.2268066,13.296875 70.2268066,8.2089844 72.2277832,8.2089844 
			72.2277832,6.9360352 68.9533691,6.9360352 		"/>
		<path fill="#636466" d="M76.4377441,18.8227539c0.9785156-0.4511719,1.5800781-1.4296875,1.5800781-2.484375V6.4780273
			c0-1.1098633-0.6464844-2.0561523-1.5673828-2.5039063c0.1826172,0.3720703,0.2949219,0.7856445,0.2949219,1.230957v9.8608398
			c0,1.0537109-0.6035156,2.0332031-1.5810547,2.4833984l1.8818359,11.2177734h-3.4580078l0.2138672,1.2724609h4.5166016
			L76.4377441,18.8227539z"/>
		<polygon fill="#636466" points="70.6848145,17.8129883 68.9533691,17.8129883 68.9533691,28.7670898 65.7102051,28.7670898 
			65.7102051,30.0395508 70.2268066,30.0395508 70.2268066,19.0864258 70.8986816,19.0864258 		"/>
	</g>
	<g>
		<polygon fill="#636466" points="88.5266113,24.2114258 89.8010254,24.2114258 89.8010254,8.2089844 91.8029785,8.2089844 
			91.8029785,6.9360352 88.5266113,6.9360352 		"/>
		<path fill="#636466" d="M96.0627441,3.9912109c0.1826172,0.3676758,0.2929688,0.7758789,0.2929688,1.2128906V25.980957
			c0,1.5048828-1.2783203,2.7851563-2.7851563,2.7851563H86.795166c-0.4375,0-0.8457031-0.1123047-1.2128906-0.2939453
			c0.4541016,0.9150391,1.3886719,1.5673828,2.4853516,1.5673828h6.7753906c1.5048828,0,2.7851563-1.2792969,2.7851563-2.7851563
			V6.4780273C97.630127,5.3808594,96.9768066,4.4458008,96.0627441,3.9912109z"/>
	</g>
	<g>
		<polygon fill="#636466" points="108.7033691,24.2114258 109.9758301,24.2114258 109.9758301,8.2089844 111.9777832,8.2089844 
			111.9777832,6.9360352 108.7033691,6.9360352 		"/>
		<path fill="#636466" d="M116.2385254,3.9912109c0.1816406,0.3676758,0.2939453,0.7758789,0.2939453,1.2128906V25.980957
			c0,1.5048828-1.2802734,2.7851563-2.7851563,2.7851563h-8.2880859v1.2734375h9.5605469
			c1.5048828,0,2.7841797-1.2792969,2.7841797-2.7851563V6.4780273
			C117.8049316,5.3808594,117.1525879,4.4458008,116.2385254,3.9912109z"/>
	</g>
	<polygon fill="#636466" points="129.1047363,3.6928711 129.1047363,28.7670898 125.8605957,28.7670898 125.8605957,30.0395508 
		130.3781738,30.0395508 130.3781738,3.6928711 	"/>
	<g>
		<polygon fill="#636466" points="149.2053223,3.6928711 149.2053223,28.7670898 145.5949707,28.7670898 145.9611816,30.0395508 
			150.4777832,30.0395508 150.4777832,3.6928711 		"/>
		<polygon fill="#636466" points="141.3752441,17.2485352 141.3752441,28.7670898 138.1330566,28.7670898 138.1330566,30.0395508 
			142.6477051,30.0395508 142.6477051,21.6762695 		"/>
	</g>
	<g>
		<path fill="#636466" d="M161.0939941,19.0864258h3.7324219v-1.2724609h-5.0068359
			c-0.4404297,0-0.8525391-0.1083984-1.2216797-0.2910156C159.0510254,18.4467773,159.9904785,19.0864258,161.0939941,19.0864258z"
			/>
		<polygon fill="#636466" points="162.8234863,20.7797852 161.552002,21.0766602 161.552002,24.2114258 162.8234863,24.2114258 		
			"/>
		<path fill="#636466" d="M169.0861816,3.9912109c0.1826172,0.3676758,0.2939453,0.7758789,0.2939453,1.2128906v5.3447266
			l-3.28125,0.7592773v1.5678711l4.5546875-1.0541992v-5.34375C170.6525879,5.3808594,170.0012207,4.4458008,169.0861816,3.9912109z
			"/>
		<path fill="#636466" d="M169.0861816,14.8691406c0.1826172,0.3676758,0.2939453,0.7758789,0.2939453,1.2133789v9.8984375
			c0,1.5048828-1.2792969,2.7851563-2.7851563,2.7851563h-6.7744141c-0.4375,0-0.8466797-0.1123047-1.2148438-0.2949219
			c0.4541016,0.9160156,1.390625,1.5683594,2.4882813,1.5683594h6.7744141c1.5058594,0,2.7841797-1.2792969,2.7841797-2.7851563
			v-9.9003906C170.6525879,16.2583008,170.0021973,15.3242188,169.0861816,14.8691406z"/>
		<polygon fill="#636466" points="161.552002,6.9360352 161.552002,13.296875 162.8234863,13.296875 162.8234863,8.2089844 
			164.826416,8.2089844 164.826416,6.9360352 		"/>
	</g>
	<g>
		<polygon fill="#636466" points="182.1418457,17.8129883 181.7277832,17.8129883 181.7277832,28.7670898 178.482666,28.7670898 
			178.482666,30.0395508 183.0012207,30.0395508 183.0012207,20.5512695 		"/>
		<polygon fill="#636466" points="191.3937988,3.6928711 189.7121582,3.6928711 185.904541,15.5551758 190.1203613,28.7670898 
			186.4504395,28.7670898 186.802002,29.8901367 186.8400879,30.0395508 191.3937988,30.0395508 187.1789551,16.8286133 		"/>
	</g>
	<polygon fill="#636466" points="202.0158691,3.6928711 202.0158691,28.7670898 198.7717285,28.7670898 198.7717285,30.0395508 
		203.2893066,30.0395508 203.2893066,3.6928711 	"/>
	
		<rect x="220.9590607" y="17.0774288" transform="matrix(-0.707008 0.7072055 -0.7072055 -0.707008 394.1096802 -127.3227386)" fill="#636466" width="4.9407706" height="1.8002222"/>
	
		<rect x="5.8273649" y="17.0756187" transform="matrix(-0.7071068 0.7071068 -0.7071068 -0.7071068 26.8767395 24.8194389)" fill="#636466" width="4.9414611" height="1.8009126"/>
	<g>
		<path fill="#FFFFFF" d="M34.0119629,10.5390625c0,0.8657227-0.3759766,1.6191406-1.015625,2.1459961
			c0.5634766,0.6020508,1.015625,1.2788086,1.015625,2.2568359v8.6201172c0,1.5058594-1.2802734,2.7851563-2.7851563,2.7851563
			h-9.5595703V0h9.5595703c1.5048828,0,2.7851563,1.2421875,2.7851563,2.7861328V10.5390625z M29.458252,4.5161133h-3.2753906
			v6.3608398h3.2753906V4.5161133z M29.458252,15.3950195h-3.2753906v6.3984375h3.2753906V15.3950195z"/>
		<path fill="#FFFFFF" d="M51.4016113,0c1.5058594,0,2.7851563,1.2421875,2.7851563,2.7861328v20.7758789
			c0,1.5058594-1.2792969,2.7851563-2.7851563,2.7851563h-6.7744141c-1.5429688,0-2.7861328-1.2792969-2.7861328-2.7851563
			V2.7861328C41.842041,1.2421875,43.0842285,0,44.6271973,0H51.4016113z M49.6330566,4.5161133H46.357666V21.793457h3.2753906
			V4.5161133z"/>
		<path fill="#FFFFFF" d="M70.1096191,26.347168l-1.8447266-10.9521484h-1.7314453V26.347168h-4.5166016V0h9.5615234
			c1.5048828,0,2.7480469,1.2421875,2.7480469,2.7861328v9.8608398c0,1.0541992-0.6035156,2.0322266-1.5810547,2.4838867
			l1.8818359,11.2163086H70.1096191z M69.8088379,4.5161133h-3.2744141v6.3608398h3.2744141V4.5161133z"/>
		<path fill="#FFFFFF" d="M91.1516113,0c1.5058594,0,2.7841797,1.2421875,2.7841797,2.7861328v20.7758789
			c0,1.5058594-1.2783203,2.7851563-2.7841797,2.7851563h-6.7744141c-1.5429688,0-2.7851563-1.2792969-2.7851563-2.7851563
			V2.7861328C81.592041,1.2421875,82.8342285,0,84.3771973,0H91.1516113z M89.3830566,4.5161133H86.107666V21.793457h3.2753906
			V4.5161133z"/>
		<path fill="#FFFFFF" d="M111.3283691,0c1.5048828,0,2.7841797,1.2421875,2.7841797,2.7861328v20.7758789
			c0,1.5058594-1.2783203,2.7851563-2.7841797,2.7851563h-9.5615234V0H111.3283691z M109.5578613,4.5161133h-3.2744141V21.793457
			h3.2744141V4.5161133z"/>
		<path fill="#FFFFFF" d="M122.1691895,0h4.5166016v26.347168h-4.5166016V0z"/>
		<path fill="#FFFFFF" d="M146.7844238,0v26.347168h-4.5166016l-3.3115234-11.5170898V26.347168h-4.5175781V0h4.4794922
			l3.3115234,10.8032227V0H146.7844238z"/>
		<path fill="#FFFFFF" d="M164.1760254,10.8769531c1.5039063,0,2.7851563,1.2421875,2.7851563,2.7851563v9.8989258
			c0,1.5058594-1.28125,2.7851563-2.7851563,2.7851563h-6.7763672c-1.5439453,0-2.7841797-1.2792969-2.7841797-2.7851563v-5.4199219
			l4.515625-1.0546875v4.7050781h3.2744141V15.394043h-5.0058594c-1.5439453,0-2.7841797-1.2431641-2.7841797-2.7861328V2.7861328
			C154.6154785,1.2431641,155.8557129,0,157.3996582,0h6.7753906c1.5039063,0,2.7851563,1.2421875,2.7851563,2.7861328v5.34375
			L162.404541,9.184082V4.5161133h-3.2744141v6.3608398H164.1760254z"/>
		<path fill="#FFFFFF" d="M183.4846191,13.1357422l4.2167969,13.2104492h-4.5546875l-0.0380859-0.1503906l-3.3876953-10.8017578
			h-0.4150391v10.9521484h-4.515625V0h4.515625v10.8769531h0.3398438L183.1086426,0h4.5927734L183.4846191,13.1357422z"/>
		<path fill="#FFFFFF" d="M195.0803223,0h4.515625v26.347168h-4.515625V0z"/>
	</g>
</g>
</svg>
